# xmcd
#
# Track frame offsets:
# 150
# 1463
# 14440
# 28236
# 42391
# 54667
# 70379
# 84326
# 96467
# 108856
# 124277
# 140408
# 154551
# 166246
# 179424
#
# Disc length: 2631 seconds
#
#
# Revision: 2
# Processed by: cddbd v1.5.2PL0 Copyright (c) Steve Scherf et al.
# Submitted via: FreeRIP 2.945 
#
DISCID=c90a450f
DTITLE=Vários - Clube da Viola Vol-03
DYEAR=2000
DGENRE=Sertanejo
TTITLE0=Abertura
TTITLE1=Fred and Pedrito - As mocinhas da cidade
TTITLE2=Guilherme and Gustavo - Abre a janela
TTITLE3=Roby and Roger - Tô facim
TTITLE4=Mauricio and Marcelo - A saudade vai
TTITLE5=Joao Pedro and Cristiano - Volta de uma vez
TTITLE6=Fred and Pedrito - Na hora do amor
TTITLE7=Guilherme and Gustavo - Forro, suor e fricote
TTITLE8=Mauricio and Marcelo - Entornando o caldo
TTITLE9=Roby and Roger - No calor dos teus abraços
TTITLE10=Fred and Pedrito - Nao diga nada
TTITLE11=Joao Pedro and Cristiano - Pe direito pe esquerdo
TTITLE12=Guilherme and Gustavo - Tche tche tche
TTITLE13=Fred and Pedrito - To caido por voce
TTITLE14=Guilherme and Gustavo - Ego
EXTD=
EXTT0=
EXTT1=
EXTT2=
EXTT3=
EXTT4=
EXTT5=
EXTT6=
EXTT7=
EXTT8=
EXTT9=
EXTT10=
EXTT11=
EXTT12=
EXTT13=
EXTT14=
PLAYORDER=
